<svg width="250" viewBox="0 0 123 63" fill="none" xmlns="http://www.w3.org/2000/svg"><g clip-path="url(#a)" fill="#fc353a"><path d="M27.106 44.11c-.42-.331-1.135-.508-2.125-.537h-8.555c-.484 0-.944.046-1.382.137-.438.092-.795.338-1.065.743-.27.406-.409 1.103-.409 2.086 0 .983.127 1.64.386 2.046.253.405.587.651.996.742.409.092.87.138 1.382.138h4.841v5.48a8.806 8.806 0 0 1-1.606.514c-.587.137-1.191.234-1.808.291-.616.063-1.243.092-1.877.092-1.658 0-3.178-.418-4.548-1.258a8.957 8.957 0 0 1-3.235-3.388c-.783-1.423-1.192-3.034-1.221-4.828.029-1.766.432-3.326 1.198-4.669a8.253 8.253 0 0 1 3.19-3.166c1.358-.765 2.895-1.142 4.616-1.142.784 0 1.543.085 2.286.245.737.166 1.393.355 1.97.56.57.212.995.417 1.266.629.57.331 1.019.577 1.335.743.317.165.61.245.881.245.455 0 .91-.16 1.382-.474.466-.314.944-.8 1.428-1.457.27-.417.484-.806.633-1.166.15-.36.213-.703.179-1.034 0-.6-.236-1.108-.703-1.526a16.284 16.284 0 0 0-1.606-1.257c-.754-.508-1.646-.943-2.671-1.303a18.658 18.658 0 0 0-3.144-.805 18.776 18.776 0 0 0-3.057-.269c-2.263.029-4.376.44-6.333 1.234-1.963.795-3.668 1.903-5.113 3.326a15.483 15.483 0 0 0-3.396 4.983C.409 41.968 0 44.025 0 46.242c0 2.337.392 4.508 1.175 6.514.782 2.006 1.894 3.76 3.327 5.257a15.53 15.53 0 0 0 5.02 3.503c1.918.84 3.973 1.257 6.178 1.257a23.244 23.244 0 0 0 6.224-.829c.921-.251 1.745-.56 2.464-.92 1.146-.6 2.05-1.28 2.718-2.045.662-.766.996-1.503.996-2.223v-9.794c0-.566-.064-1.103-.179-1.595a2.215 2.215 0 0 0-.812-1.234l-.005-.023zM47.562 40.585a5.057 5.057 0 0 0-1.198-.537 6.714 6.714 0 0 0-1.267-.269 10.054 10.054 0 0 0-1.11-.068c-.847 0-1.59.12-2.24.36a6.405 6.405 0 0 0-2.69 1.828 4.092 4.092 0 0 0-.137-.554c-.121-.372-.415-.703-.881-.989-.467-.285-1.232-.428-2.286-.428-1.117 0-1.917.16-2.4.474-.484.314-.778.726-.882 1.234a8.322 8.322 0 0 0-.16 1.663v15.674c0 .571.051 1.126.16 1.663.104.537.392.965.858 1.28.467.314 1.261.474 2.378.474 1.117 0 1.917-.148 2.4-.451.485-.297.778-.709.882-1.235a8.433 8.433 0 0 0 .161-1.64V49.23c0-.48.098-.902.294-1.28a2.78 2.78 0 0 1 .811-.943c.346-.25.726-.44 1.135-.56.408-.12.834-.177 1.29-.177.483 0 .811.04.995.115.179.074.34.165.478.268.138.103.311.194.518.269.213.074.57.114 1.088.114.876 0 1.601-.428 2.17-1.28.57-.851.859-1.891.859-3.12 0-.48-.115-.88-.34-1.211a2.837 2.837 0 0 0-.88-.829l-.006-.011zM72.157 40.38c-.466-.332-1.261-.492-2.378-.492-1.117 0-1.917.16-2.4.474-.484.314-.778.726-.882 1.234a8.313 8.313 0 0 0-.16 1.663v8.177c0 .868-.174 1.617-.519 2.246a3.62 3.62 0 0 1-1.45 1.457c-.617.343-1.365.514-2.24.514-.876 0-1.578-.166-2.194-.491a3.26 3.26 0 0 1-1.405-1.457c-.317-.646-.478-1.4-.478-2.27V43.35c0-.6-.052-1.16-.16-1.685-.105-.526-.392-.949-.859-1.28-.466-.332-1.26-.492-2.377-.492-1.117 0-1.918.166-2.401.492-.484.331-.777.748-.881 1.257a8.32 8.32 0 0 0-.161 1.663v8.13c0 1.59.247 3.047.748 4.378.495 1.331 1.198 2.486 2.107 3.457a9.689 9.689 0 0 0 3.167 2.269c1.209.537 2.516.811 3.938.811.875 0 1.646-.137 2.309-.406a7.685 7.685 0 0 0 1.744-.965c.495-.372.898-.72 1.198-1.035.011.189.028.395.063.612.046.297.173.583.386.851.213.269.54.492.996.674.455.177 1.088.269 1.9.269 1.088 0 1.87-.149 2.354-.451.484-.298.778-.698.881-1.189a7.714 7.714 0 0 0 .161-1.594V43.305c0-.566-.051-1.115-.16-1.64-.105-.526-.392-.949-.859-1.28l.012-.006zM96.096 43.322a11.388 11.388 0 0 0-3.328-2.446 8.806 8.806 0 0 0-3.892-.897c-1.45 0-2.723.292-3.823.874a7.985 7.985 0 0 0-1.698 1.206v-8.908c.029-.572 0-1.115-.092-1.64-.092-.526-.363-.949-.812-1.28-.455-.332-1.22-.492-2.309-.492-1.088 0-1.917.155-2.4.475-.484.314-.778.731-.881 1.257a8.687 8.687 0 0 0-.162 1.685v25.828c0 .572.052 1.115.162 1.64.103.526.397.949.88 1.28.484.332 1.267.492 2.355.492s1.825-.166 2.309-.492c.484-.331.8-.84.95-1.525v-.12a8.38 8.38 0 0 0 1.63 1.177c1.116.611 2.412.92 3.891.92a9.13 9.13 0 0 0 3.938-.875 10.668 10.668 0 0 0 3.305-2.445 11.91 11.91 0 0 0 2.286-3.617c.558-1.36.834-2.806.834-4.337 0-1.532-.282-2.869-.834-4.2a11.71 11.71 0 0 0-2.31-3.549v-.011zM91.84 53.453a4.682 4.682 0 0 1-1.606 1.64c-.662.406-1.416.606-2.263.606-.783 0-1.508-.2-2.17-.606a4.48 4.48 0 0 1-1.584-1.64 4.56 4.56 0 0 1-.587-2.291c0-.84.19-1.594.564-2.269a4.282 4.282 0 0 1 1.584-1.617 4.29 4.29 0 0 1 2.24-.606c.811 0 1.56.195 2.239.583.68.389 1.215.932 1.606 1.617.392.692.587 1.452.587 2.292 0 .84-.201 1.6-.61 2.291zM122.528 56.687c-.317-.48-.731-.777-1.244-.897a7.345 7.345 0 0 0-1.675-.177h-8.193l10.047-9.925c.299-.269.535-.623.702-1.058.167-.434.248-.891.248-1.371 0-.96-.317-1.754-.95-2.383-.633-.628-1.434-.943-2.401-.943h-14.163c-.576 0-1.123.052-1.652.16-.53.103-.968.389-1.313.852-.346.463-.518 1.251-.518 2.36 0 1.108.172 1.897.518 2.36.345.463.783.754 1.313.874.529.12 1.076.177 1.652.177h6.88l-10.271 9.88a3.247 3.247 0 0 0-.749 1.126 3.47 3.47 0 0 0-.247 1.302c0 .96.322 1.76.973 2.406.65.646 1.439.966 2.378.966h15.706c.604 0 1.163-.046 1.675-.137.512-.092.933-.372 1.267-.852.334-.48.495-1.257.495-2.337 0-1.08-.161-1.903-.478-2.383zM49.312 16.311a2.19 2.19 0 0 0-.818-1.24c-.42-.331-1.134-.508-2.13-.537h-8.567c-.484 0-.944.046-1.382.137-.437.092-.794.337-1.065.743-.27.406-.409 1.103-.409 2.091 0 .989.127 1.64.386 2.046.253.406.587.651.996.743.409.091.87.131 1.382.131h4.848v5.486a8.731 8.731 0 0 1-1.612.514c-.588.137-1.192.234-1.814.292a18.64 18.64 0 0 1-1.883.091c-1.664 0-3.178-.417-4.554-1.257a9.032 9.032 0 0 1-3.241-3.394c-.789-1.423-1.192-3.035-1.227-4.834.03-1.766.432-3.332 1.204-4.68A8.32 8.32 0 0 1 32.62 9.47c1.359-.765 2.902-1.148 4.623-1.148.789 0 1.549.085 2.292.245a16.57 16.57 0 0 1 1.969.56c.575.212.996.423 1.266.629.576.331 1.02.577 1.336.743.317.165.61.245.887.245.455 0 .915-.16 1.381-.474.467-.314.945-.8 1.428-1.463.27-.417.484-.811.634-1.171.15-.36.213-.703.184-1.034 0-.6-.236-1.109-.703-1.532a17.1 17.1 0 0 0-1.612-1.257c-.754-.508-1.646-.943-2.671-1.303a20.834 20.834 0 0 0-1.543-.468 5.835 5.835 0 0 1-5.516 3.903 5.828 5.828 0 0 1-3.08-.875 4.951 4.951 0 0 1-4.49 2.852c0 2.371-1.94 4.297-4.33 4.297a4.353 4.353 0 0 1-2.337-.68c-.668 1.748-1.002 3.623-1.002 5.628 0 2.337.391 4.514 1.18 6.52.783 2.011 1.894 3.766 3.328 5.263a15.384 15.384 0 0 0 5.032 3.508c1.917.84 3.978 1.257 6.183 1.257a23.341 23.341 0 0 0 6.235-.828c.921-.257 1.745-.56 2.47-.92 1.146-.6 2.056-1.28 2.718-2.046.662-.765.996-1.508.996-2.228v-9.806a6.66 6.66 0 0 0-.185-1.594l.018.017zM74.558 16.202a11.696 11.696 0 0 0-4.232-4.2c-1.767-1.034-3.736-1.548-5.907-1.548-1.595 0-3.097.308-4.502.926a12.13 12.13 0 0 0-3.737 2.537 12.16 12.16 0 0 0-2.556 3.708c-.622 1.389-.927 2.897-.927 4.514 0 1.738.34 3.315 1.013 4.738a11.413 11.413 0 0 0 2.735 3.662 12.793 12.793 0 0 0 3.823 2.36c1.405.554 2.815.829 4.232.829 1.416 0 2.769-.257 4.14-.783a11.976 11.976 0 0 0 3.759-2.314 11.52 11.52 0 0 0 2.711-3.663c.686-1.423 1.02-3.046 1.02-4.874 0-2.155-.53-4.114-1.584-5.886l.012-.006zm-6.023 8.577a4.945 4.945 0 0 1-1.9 1.617c-.754.36-1.496.538-2.216.538-.72 0-1.462-.172-2.217-.515a4.54 4.54 0 0 1-1.877-1.617c-.495-.731-.742-1.64-.742-2.714 0-.931.219-1.76.656-2.491a4.883 4.883 0 0 1 1.722-1.732c.708-.417 1.52-.634 2.418-.634.967 0 1.819.206 2.556.611a4.52 4.52 0 0 1 1.744 1.686c.42.714.634 1.554.634 2.514 0 1.109-.254 2.023-.766 2.737h-.011zM29.846 4.671c.144-.577 0-1.028-.345-1.405-.84-.943-2.338-.869-3.253 0-1.653 1.565-2.43 4.24.069 4.2.49-.006.967-.269 1.203-.692.3-.543.818-.971 1.4-1.188.431-.16.811-.469.926-.915zM36.208.5c-1.59.04-2.418.937-1.733 1.949.282.417.823.537 1.318.4.323-.092.674-.058.996.062.403.155.87.052 1.17-.251.915-.926-.3-1.983-1.751-2.16z"/></g><defs><clipPath id="a"><path fill="#fc353a" transform="translate(0 .5)" d="M0 0h123v62.25H0z"/></clipPath></defs></svg>