<svg width="450" height="325" viewBox="0 0 450 325" fill="none" xmlns="http://www.w3.org/2000/svg">
<path fill-rule="evenodd" clip-rule="evenodd" d="M2.49594 260.953C1.49572 258.079 0.931218 254.962 0.802422 251.604C0.673626 248.246 0.93539 244.755 1.58764 241.13C2.27003 237.433 3.22075 233.551 4.43983 229.485C5.71024 225.525 7.23397 221.416 9.01095 217.159C10.7578 212.974 12.6207 208.626 14.5996 204.115C16.6299 199.709 18.7461 195.212 20.9481 190.625C23.1502 186.037 25.3116 181.432 27.4322 176.81C29.6644 172.15 31.7593 167.475 33.717 162.785C35.7261 158.201 37.5572 153.586 39.2102 148.938C40.8633 144.291 42.2932 139.719 43.4999 135.224C44.7067 130.729 45.7053 126.274 46.4958 121.86C47.3678 117.479 48.0725 113.156 48.6097 108.89C49.147 104.624 49.5426 100.468 49.7964 96.4223C50.1618 92.3386 50.4971 88.3271 50.8023 84.3877C51.0774 80.5205 51.3224 76.7254 51.5372 73.0025C51.8335 69.3136 52.1661 65.767 52.535 62.3625C52.934 58.8859 53.425 55.5325 54.0082 52.3022C54.6728 49.1059 55.4702 46.0498 56.4005 43.1339C57.3608 40.1458 58.4947 37.3149 59.8021 34.6411C61.191 32.0013 62.7941 29.5357 64.6116 27.2443C66.4591 24.8807 68.536 22.6552 70.8422 20.5678C73.1183 18.5526 75.6087 16.7115 78.3133 15.0446C81.048 13.3055 83.9563 11.7236 87.0382 10.2989C90.0899 8.9463 93.2895 7.69782 96.6369 6.55341C99.9543 5.48115 103.364 4.53206 106.865 3.70611C110.418 2.98633 114.063 2.38971 117.8 1.91625C121.455 1.40878 125.173 1.09663 128.952 0.979782C132.732 0.86294 136.547 0.888335 140.399 1.05596C144.251 1.22359 148.084 1.55251 151.897 2.04275C155.71 2.53299 159.463 3.16753 163.155 3.94638C166.929 4.75922 170.658 5.68031 174.342 6.70961C178.025 7.73892 181.704 8.89346 185.379 10.1732C189.084 11.3808 192.799 12.6776 196.525 14.0635C200.221 15.5216 203.973 16.9606 207.781 18.3805C211.558 19.8726 215.376 21.3817 219.235 22.9078C223.124 24.3617 227.095 25.8497 231.147 27.3716C235.229 28.8214 239.382 30.2161 243.605 31.5555C247.88 33.0012 252.256 34.3195 256.733 35.5106C261.211 36.7016 265.814 37.8185 270.545 38.8611C275.275 39.9037 280.162 40.7999 285.206 41.5498C290.25 42.2996 295.42 42.9752 300.717 43.5766C305.903 44.2162 311.215 44.7815 316.654 45.2726C322.011 45.7297 327.368 46.1868 332.726 46.6439C338.195 47.0629 343.593 47.537 348.92 48.0662C354.247 48.5955 359.504 49.1799 364.689 49.8195C369.875 50.459 374.918 51.2089 379.821 52.069C384.723 52.9292 389.468 53.9357 394.057 55.0886C398.615 56.3136 402.961 57.7041 407.095 59.2601C411.177 60.7099 415.042 62.4504 418.69 64.4815C422.256 66.4787 425.524 68.7325 428.494 71.243C431.382 73.7195 434.013 76.4696 436.386 79.4935C438.707 82.4112 440.719 85.4964 442.423 88.7491C444.096 92.074 445.49 95.4942 446.605 99.0098C447.609 102.564 448.349 106.177 448.824 109.849C449.3 113.521 449.472 117.236 449.338 120.993C449.205 124.75 448.741 128.496 447.947 132.231C447.183 135.894 446.145 139.528 444.832 143.131C443.438 146.701 441.758 150.151 439.794 153.483C437.829 156.814 435.594 159.99 433.09 163.012C430.615 165.961 427.774 168.757 424.566 171.4C421.47 174.005 418.16 176.435 414.635 178.692C411.029 180.914 407.275 183.033 403.373 185.047C399.471 187.062 395.421 188.972 391.223 190.778C387.026 192.584 382.787 194.374 378.508 196.146C374.229 197.918 369.965 199.654 365.716 201.354C361.356 203.092 357.077 204.864 352.879 206.671C348.763 208.511 344.713 210.421 340.73 212.402C336.746 214.382 332.951 216.483 329.345 218.706C325.739 220.928 322.362 223.289 319.215 225.788C316.037 228.359 313.114 231.121 310.447 234.074C307.809 236.955 305.427 240.027 303.299 243.291C301.09 246.52 299.126 249.852 297.406 253.285C295.604 256.684 293.965 260.152 292.489 263.687C290.932 267.189 289.512 270.705 288.229 274.236C286.865 277.734 285.572 281.176 284.349 284.563C283.127 287.95 281.868 291.195 280.573 294.297C279.359 297.434 278.069 300.411 276.701 303.229C275.333 306.047 273.837 308.6 272.213 310.887C270.64 313.281 268.913 315.356 267.032 317.112C265.15 318.869 263.06 320.326 260.759 321.483C258.458 322.641 255.947 323.499 253.227 324.058C250.618 324.579 247.769 324.873 244.681 324.939C241.592 325.005 238.319 324.825 234.862 324.399C231.456 324.079 227.852 323.548 224.047 322.807C220.213 322.139 216.205 321.313 212.024 320.33C207.924 319.381 203.621 318.347 199.114 317.229C194.607 316.11 189.936 314.923 185.103 313.668C180.27 312.413 175.285 311.179 170.147 309.967C165.01 308.754 159.746 307.616 154.355 306.551C148.912 305.381 143.328 304.321 137.603 303.371C131.907 302.349 126.126 301.419 120.258 300.579C114.34 299.634 108.447 298.741 102.579 297.902C96.7121 297.062 90.9005 296.204 85.1447 295.326C79.4191 294.376 73.8307 293.442 68.3795 292.522C62.8771 291.496 57.5827 290.429 52.4964 289.323C47.4101 288.216 42.5771 286.962 37.9974 285.558C33.4991 284.189 29.2949 282.688 25.3847 281.056C21.4744 279.424 18.0256 277.603 15.0381 275.593C11.9692 273.55 9.36165 271.317 7.21551 268.896C5.15081 266.509 3.57762 263.862 2.49594 260.953Z" fill="#FDF6F2"/>
</svg>
