<svg xmlns="http://www.w3.org/2000/svg" viewBox="0 0 800.16 237.11"><defs><style>.cls-1{fill:#fff;}</style></defs><g id="Layer_2" data-name="Layer 2"><g id="Layer_1-2" data-name="Layer 1"><g id="Layer_2-2" data-name="Layer 2"><g id="Layer_1-2-2" data-name="Layer 1-2"><path class="cls-1" d="M794.79,209.28A22.71,22.71,0,0,1,772.08,232H27.94A22.75,22.75,0,0,1,5.17,209.28V28.17A22.77,22.77,0,0,1,27.94,5.45H772.05a22.73,22.73,0,0,1,22.74,22.72h0Z"/><path d="M772.12,237.1H28a28.06,28.06,0,0,1-28-28V28A28.06,28.06,0,0,1,28,0H772.11a28.07,28.07,0,0,1,28,28V209.11a28,28,0,0,1-28,28Z"/><path d="M794.79,209.28A22.71,22.71,0,0,1,772.08,232H27.94A22.75,22.75,0,0,1,5.17,209.28V28.17A22.77,22.77,0,0,1,27.94,5.45H772.05a22.73,22.73,0,0,1,22.74,22.72h0Z"/><path class="cls-1" d="M178.57,117.47c-.17-19.11,15.65-28.4,16.38-28.84-9-13.06-22.86-14.84-27.74-15-11.66-1.22-23,7-28.92,7S123.08,73.77,113.21,74c-12.69.2-24.56,7.55-31.07,19-13.44,23.25-3.42,57.44,9.46,76.25,6.44,9.21,14,19.49,23.81,19.12,9.64-.39,13.24-6.13,24.87-6.13s14.91,6.13,25,5.9c10.35-.16,16.86-9.25,23.07-18.54A75.65,75.65,0,0,0,198.89,148c-.23-.08-20.08-7.66-20.28-30.56Zm-19-56.19C164.76,54.8,168.3,46,167.32,37c-7.5.33-16.89,5.19-22.29,11.53-4.78,5.58-9,14.74-7.95,23.35,8.45.63,17.1-4.25,22.51-10.63Z"/><path class="cls-1" d="M318.16,187H304.69l-7.38-23.18H271.67l-7,23.18H251.53l25.41-78.9h15.7L318.16,187Zm-23.07-32.9-6.67-20.6q-1.05-3.15-4-14.87h-.24q-1.17,5-3.75,14.87l-6.54,20.6Zm88.3,3.75q0,14.52-7.89,22.94a23.06,23.06,0,0,1-17.54,7.5q-11.31,0-16.25-8.07V210H329.06V148.77q0-9.12-.47-18.7h11.12l.71,9h.24q6.33-10.17,19.2-10.19a21.11,21.11,0,0,1,16.8,8q6.72,8,6.73,21Zm-12.88.47q0-8.31-3.75-13.71a13,13,0,0,0-11-5.61,13.19,13.19,0,0,0-8.49,3.1,14.44,14.44,0,0,0-5,8.14,16.24,16.24,0,0,0-.59,3.85v9.49A15.22,15.22,0,0,0,345.49,174a12.58,12.58,0,0,0,9.89,4.28,13,13,0,0,0,11.12-5.5q4-5.49,4-14.52Zm78.33-.47q0,14.52-7.88,22.94a23.14,23.14,0,0,1-17.55,7.5q-11.31,0-16.25-8.07V210H394.51V148.77q0-9.12-.47-18.7h11.12l.71,9h.24q6.31-10.17,19.2-10.19a21.16,21.16,0,0,1,16.81,8q6.7,8,6.72,21Zm-12.88.47q0-8.31-3.76-13.71a13,13,0,0,0-11-5.61,13.22,13.22,0,0,0-8.5,3.1,14.44,14.44,0,0,0-5,8.14,17.33,17.33,0,0,0-.59,3.85v9.49a15.26,15.26,0,0,0,3.8,10.48,12.61,12.61,0,0,0,9.9,4.28,12.91,12.91,0,0,0,11.12-5.5q4-5.49,4-14.52ZM522,164.83a21,21,0,0,1-7,16.39q-7.68,6.9-21.5,6.91-12.73,0-20.43-4.92L476,172.68a35.17,35.17,0,0,0,18.27,4.92q7.15,0,11.12-3.22a10.52,10.52,0,0,0,4-8.6,11,11,0,0,0-3.29-8.08c-2.18-2.18-5.8-4.21-10.89-6.08q-20.7-7.71-20.73-22.6a19.93,19.93,0,0,1,7.32-15.92q7.32-6.21,19.38-6.21c7.18,0,13.17,1.25,17.92,3.75l-3.23,10.3a31.47,31.47,0,0,0-15.16-3.63c-4.46,0-8,1.1-10.46,3.28a9.36,9.36,0,0,0-3.17,7.15,9.68,9.68,0,0,0,3.63,7.73c2.1,1.86,5.93,3.9,11.47,6.08q10.2,4.11,15,9.59A20,20,0,0,1,522,164.83Zm41.91-25.28H550v27.62q0,10.53,7.38,10.53a21.7,21.7,0,0,0,5.62-.59l.35,9.6a28.52,28.52,0,0,1-9.83,1.4q-7.5,0-11.72-4.57t-4.21-15.37V139.53h-8.31V130h8.31V119.62L550,115.88V130h13.94Zm62.76,18.5q0,13.11-7.5,21.54-7.83,8.67-20.84,8.66-12.54,0-20-8.3t-7.43-21q0-13.22,7.67-21.65t20.67-8.43q12.53,0,20.14,8.31,7.29,8.06,7.26,20.83Zm-13.11.29a25.4,25.4,0,0,0-3.38-13.43q-4-6.74-11.32-6.74a12.69,12.69,0,0,0-11.59,6.77,25.94,25.94,0,0,0-3.41,13.63A25.36,25.36,0,0,0,587.28,172q4.11,6.78,11.49,6.78c4.83,0,8.62-2.31,11.36-6.89a25.54,25.54,0,0,0,3.49-13.55Zm54.23-17.17a24.37,24.37,0,0,0-4-.35,11.94,11.94,0,0,0-10.3,5,19,19,0,0,0-3.16,11.24v29.85H637.73v-39q0-9-.37-17.91h11l.46,10.89h.35a19.51,19.51,0,0,1,6.33-9,15.37,15.37,0,0,1,9.14-3,22.18,22.18,0,0,1,3.16.23v12.1Zm56.55,14.64a29.79,29.79,0,0,1-.47,5.74H686q.21,8.43,5.51,12.89,4.78,4,12.4,4a41.68,41.68,0,0,0,15.35-2.69l2,8.77A47.24,47.24,0,0,1,702.15,188q-13.23,0-20.79-7.78t-7.55-20.9q0-12.84,7-21.41,7.38-9.12,19.9-9.13,12.3,0,18.63,9.13,5,7.23,5,17.89Zm-12.06-3.28a16.93,16.93,0,0,0-2.46-9.71c-2.18-3.53-5.55-5.28-10.07-5.28a12.05,12.05,0,0,0-10.06,5.15,18.84,18.84,0,0,0-3.74,9.83Z"/><path class="cls-1" d="M268,80.17a79,79,0,0,1-9.09-.46V41.55a68.69,68.69,0,0,1,10.71-.81c14.5,0,21.17,7.14,21.17,18.76C290.81,72.91,282.89,80.17,268,80.17Zm2.13-34.53a25.44,25.44,0,0,0-5,.41v29a31.06,31.06,0,0,0,4.2.17c9.5,0,14.91-5.41,14.91-15.54,0-9-4.9-14-14.11-14Zm41.48,34.82c-8.18,0-13.47-6.1-13.47-14.38,0-8.64,5.41-14.79,13.93-14.79,8.05,0,13.47,5.81,13.47,14.33,0,8.73-5.58,14.83-13.93,14.83Zm.26-24.64c-4.49,0-7.36,4.2-7.36,10.07s2.93,10,7.3,10,7.31-4.48,7.31-10.07-2.88-9.95-7.25-9.95Zm60.3-4-8.75,28h-5.7l-3.65-12.15a92.47,92.47,0,0,1-2.25-9h-.12a58.91,58.91,0,0,1-2.24,9l-3.85,12.15h-5.74l-8.23-28H338l3.15,13.35q1.14,4.74,1.9,9h.12a88.92,88.92,0,0,1,2.3-8.91l4-13.35h5.07L358.38,65c.92,3.17,1.66,6.28,2.25,9.21h.16a80.45,80.45,0,0,1,1.9-9.21l3.4-13.06Zm32.2,28h-6.21V63.76c0-4.94-1.9-7.42-5.64-7.42s-6.25,3.16-6.25,6.83V79.82h-6.21v-20c0-2.48-.06-5.13-.23-8h5.46l.3,4.31h.17a10,10,0,0,1,8.86-4.88c5.88,0,9.73,4.49,9.73,11.79V79.82Zm17.14,0h-6.22V39h6.22Zm22.67.63c-8.17,0-13.47-6.1-13.47-14.38,0-8.64,5.41-14.79,13.92-14.79,8.06,0,13.47,5.81,13.47,14.33,0,8.74-5.61,14.84-13.95,14.84Zm.23-24.63c-4.49,0-7.37,4.2-7.37,10.07s2.94,10,7.3,10,7.31-4.48,7.31-10.07-2.87-9.95-7.24-9.95Zm38.2,24-.45-3.22H482a9.54,9.54,0,0,1-8.18,3.85c-5,0-8.57-3.51-8.57-8.23,0-6.9,6-10.47,16.35-10.47v-.52c0-3.68-2-5.52-5.81-5.52a13.21,13.21,0,0,0-7.31,2.07l-1.26-4.08a18,18,0,0,1,9.6-2.42c7.31,0,11,3.85,11,11.57V73.17a42.37,42.37,0,0,0,.4,6.67Zm-.86-13.93c-6.9,0-10.36,1.67-10.36,5.64,0,2.93,1.78,4.37,4.26,4.37a6,6,0,0,0,6.1-5.7ZM518,79.82l-.29-4.49h-.17c-1.79,3.39-4.79,5.12-9,5.12-6.75,0-11.74-5.93-11.74-14.27,0-8.75,5.18-14.91,12.25-14.91,3.74,0,6.39,1.27,7.89,3.8h.12v-16h6.22V72.28c0,2.7.07,5.24.23,7.54Zm-.92-16.46c0-3.91-2.59-7.25-6.55-7.25-4.61,0-7.42,4.09-7.42,9.84s2.92,9.5,7.3,9.5c3.91,0,6.67-3.4,6.67-7.43Zm45.67,17.09c-8.17,0-13.47-6.1-13.47-14.38,0-8.64,5.41-14.79,13.93-14.79,8.06,0,13.47,5.81,13.47,14.33C576.69,74.35,571.11,80.45,562.76,80.45ZM563,55.82c-4.49,0-7.36,4.2-7.36,10.07s2.93,10,7.3,10,7.3-4.48,7.3-10.07-2.86-9.95-7.24-9.95Zm47.12,24h-6.22V63.76c0-4.94-1.9-7.42-5.64-7.42S592,59.5,592,63.18V79.82h-6.25v-20c0-2.48-.06-5.13-.23-8H591l.29,4.31h.17a10.07,10.07,0,0,1,8.86-4.89c5.87,0,9.73,4.49,9.73,11.8Zm41.78-23.31h-6.84V70.09c0,3.46,1.2,5.18,3.62,5.18a11.12,11.12,0,0,0,2.76-.29l.17,4.72a13.36,13.36,0,0,1-4.82.7c-4.9,0-7.83-2.71-7.83-9.79V56.51h-4.06V51.85H639V46.73l6.1-1.84v7h6.82v4.62Zm32.9,23.31h-6.2V63.88c0-5-1.89-7.54-5.64-7.54-3.22,0-6.22,2.19-6.22,6.62V79.82h-6.21V39h6.21v16.8h.16a9.44,9.44,0,0,1,8.41-4.55c5.92,0,9.53,4.6,9.53,11.91V79.82ZM718.5,67.33H699.89c.12,5.29,3.63,8.28,8.81,8.28a20.87,20.87,0,0,0,7.54-1.32l1,4.32a23.18,23.18,0,0,1-9.38,1.72c-8.75,0-13.93-5.52-13.93-14.09s5.3-15,13.23-15c7.14,0,11.63,5.29,11.63,13.29a11.56,11.56,0,0,1-.22,2.82Zm-5.7-4.43c0-4.32-2.17-7.36-6.15-7.36-3.57,0-6.39,3.1-6.79,7.36Z"/></g></g></g></g></svg>