<svg width="24" height="24" viewBox="0 0 24 24" fill="none" xmlns="http://www.w3.org/2000/svg">
<path d="M6.15625 14.1439C5.9668 13.9268 5.875 13.6594 5.875 13.3931C5.875 13.0742 6.00781 12.7565 6.26562 12.5314C6.74219 12.1165 7.46484 12.1657 7.8789 12.6411L11.9999 17.3678L16.121 12.6411C16.5351 12.1657 17.2579 12.1165 17.7344 12.5314C18.209 12.9451 18.2578 13.6674 17.8438 14.1439L12.8613 19.858C12.6445 20.1071 12.33 20.25 11.9999 20.25C11.67 20.25 11.3554 20.1071 11.1386 19.858L6.15625 14.1439Z" fill="white"/>
<path d="M6.15625 6.14417C5.96679 5.92703 5.875 5.65961 5.875 5.39333C5.875 5.07449 6.00781 4.75678 6.26562 4.53165C6.48633 4.339 6.76172 4.24641 7.0332 4.25011L17.045 4.25V4.2517C17.2911 4.26506 17.5352 4.35745 17.7344 4.53165C18.209 4.94649 18.2578 5.66761 17.8438 6.14417L12.8613 11.8583C12.6445 12.1074 12.33 12.2503 11.9999 12.2503C11.67 12.2503 11.3554 12.1074 11.1386 11.8583L6.15625 6.14417Z" fill="white"/>
</svg>
